<svg data-name="Credit icon'" xmlns="http://www.w3.org/2000/svg" width="82" height="82" viewBox="0 0 82 82">
    <defs>
        <linearGradient id="sazhnum9ka" x1=".5" x2=".5" y2="1" gradientUnits="objectBoundingBox">
            <stop offset="0" stop-color="#f25b6c"/>
            <stop offset="1" stop-color="#f8a2ac"/>
        </linearGradient>
        <clipPath id="tnqxae133b">
            <path data-name="Rectangle 1398" style="fill:url(#sazhnum9ka)" d="M0 0h82v82H0z"/>
        </clipPath>
    </defs>
    <g data-name="Group 5854" style="clip-path:url(#tnqxae133b)">
        <path data-name="Path 29544" d="M35.163 0c.425.357.875.688 1.269 1.076 1.483 1.46 2.935 2.952 4.432 4.4a1.041 1.041 0 0 0 .867.241 194.299 194.299 0 0 0 6.389-2.3 12.876 12.876 0 0 1 10.422.231c3.591 1.682 7.07 3.606 10.582 5.455a9.058 9.058 0 0 0 4.514 1.285c.028-.139.067-.287.087-.438a1.538 1.538 0 0 1 1.631-1.517c1.147-.033 2.295-.011 3.442-.012h.985c0-.5-.019-.915 0-1.33a1.546 1.546 0 0 1 1.67-1.645q4.684-.025 9.368 0A1.547 1.547 0 0 1 92.485 7.1q.02 10 0 20.009c0 1.11-.674 1.708-1.866 1.71-4.591.007-9.181.014-13.772-.011a1.374 1.374 0 0 0-1.244.625 12.863 12.863 0 0 1-7.886 5.212 7.6 7.6 0 0 1-2.068.124 1.823 1.823 0 0 0-1.592.657Q56.526 43 48.955 50.54c-1.247 1.246-1.985 1.242-3.238-.009L16.274 21.105c-1.4-1.4-1.394-1.958.027-3.378L32.895 1.15C33.3.741 33.765.382 34.2 0zm8.6 8.42c2.01 2 3.914 3.905 5.833 5.792a1.775 1.775 0 0 0 .7.356c2.18.7 4.365 1.389 6.548 2.084 1.472.468 2.953.913 4.41 1.424a1.531 1.531 0 0 1 .975 1.939 1.6 1.6 0 0 1-1.887 1.091 6.344 6.344 0 0 1-.69-.2c-4.546-1.439-9.088-2.888-13.639-4.313a3.084 3.084 0 0 0-3.626 1.317 2.964 2.964 0 0 0 .475 3.808 6.321 6.321 0 0 0 2.152 1.31c3.943 1.392 7.92 2.687 11.866 4.072a3.523 3.523 0 0 1 1.506 1.078 9.575 9.575 0 0 0 9.362 3.187 10.306 10.306 0 0 0 5.789-4.54 1.433 1.433 0 0 0 .179-.756c.011-3.921 0-7.843.015-11.764 0-.459-.118-.665-.616-.7a14.131 14.131 0 0 1-5.815-1.851c-3.284-1.766-6.582-3.511-9.932-5.146a9.322 9.322 0 0 0-7.092-.529c-2.152.69-4.257 1.525-6.511 2.342m6.112 19.668c-.136.382-.221.632-.314.879A9.12 9.12 0 1 1 38.682 16.92a1.845 1.845 0 0 0 .956-.7 6.542 6.542 0 0 1 3.775-2.783c.187-.053.366-.132.542-.2l-3.348-3.316a.17.17 0 0 0-.1.02 10.174 10.174 0 0 1-11.458.114.639.639 0 0 0-.595.078c-1.136 1.084-2.245 2.2-3.349 3.287a10.377 10.377 0 0 1 .109 11.831l16.3 16.3a10.239 10.239 0 0 1 11.669 0l3.661-3.642c-1.672-2.873-1.884-3.836-1.683-7.545.01-.187-.117-.506-.255-.555-1.649-.59-3.311-1.139-5.032-1.721m33.172-2.517h6.209V8.672h-6.21zm-36.3 1.414c-3.656-1.053-7.22-2.214-8-6.647a5.858 5.858 0 0 0-3.546 6.547 5.968 5.968 0 0 0 5.893 4.791 5.848 5.848 0 0 0 5.652-4.691m30.24-1.426h2.747v-13.9h-2.75zM50.839 43.938c-2.149-1.355-5.476-1.308-6.9 0l3.446 3.45 3.453-3.448M19.18 19.537c.591.574 1.2 1.136 1.772 1.726s1.141 1.224 1.736 1.866a6.688 6.688 0 0 0 .1-7.21l-3.61 3.617M34.7 4.04l-3.481 3.479c1.518 1.38 5.576 1.347 6.948-.022L34.7 4.04m24.41 31.72 1.843-1.82-2.877-1.55 1.034 3.37" transform="translate(-10.499)" style="fill:url(#sazhnum9ka)"/>
        <path data-name="Path 29545" d="M0 166.926a2.374 2.374 0 0 1 2.3-1.083c4.457.035 8.914.008 13.371.025a1.317 1.317 0 0 0 1.192-.584c2.055-2.686 4.591-4.759 8.03-5.244a12.484 12.484 0 0 1 11.3 3.978 3.062 3.062 0 0 0 1.155.776c3.524 1.22 7.059 2.406 10.594 3.594 2.927.983 3.753 1.676 5.613 4.787 3.189-.882 6.392-1.778 9.6-2.652 1.742-.475 3.449-1.125 5.32-.922a5.959 5.959 0 0 1 5.166 3.857 5.871 5.871 0 0 1-.969 6.367 8.468 8.468 0 0 1-3.753 2.629q-12.488 4.475-24.971 8.966a12.811 12.811 0 0 1-10.191-.471c-3.527-1.7-6.97-3.571-10.434-5.4a8.811 8.811 0 0 0-4.462-1.255c-.324 1.714-.654 1.979-2.462 1.979h-3.693c0 .524.027.973-.006 1.418a1.477 1.477 0 0 1-1.528 1.526c-3.2.033-6.4.017-9.607.011A1.722 1.722 0 0 1 0 188.058zm18.779 14.087a15.812 15.812 0 0 1 7.09 2.27c2.982 1.651 6.025 3.194 9.078 4.712a9.686 9.686 0 0 0 6.39.828 21.4 21.4 0 0 0 2.8-.916q11.853-4.234 23.7-8.479a4.986 4.986 0 0 0 2.534-1.865 3.016 3.016 0 0 0-2.092-4.74 5.738 5.738 0 0 0-2.126.194c-3.937 1.055-7.858 2.17-11.792 3.237a1.215 1.215 0 0 0-.942.912 6.255 6.255 0 0 1-7.764 4.015c-1.534-.446-3.05-.957-4.574-1.439q-4.8-1.52-9.6-3.044a1.583 1.583 0 0 1-1.274-1.7 1.5 1.5 0 0 1 1.284-1.429 2.882 2.882 0 0 1 1.167.155c2.367.732 4.726 1.487 7.087 2.237 2.234.709 4.463 1.438 6.7 2.126a3.108 3.108 0 0 0 3.676-1.359 2.98 2.98 0 0 0-.583-3.858 6.976 6.976 0 0 0-2.259-1.288c-3.893-1.373-7.818-2.656-11.714-4.023a3.625 3.625 0 0 1-1.447-1.028 9.213 9.213 0 0 0-9.108-3.251c-2.717.5-4.594 2.374-6.079 4.619a1.77 1.77 0 0 0-.159.919c-.012 2.641-.007 5.282-.007 7.923v4.272m-9.308-11.89h-6.2v16.859h6.2zm3.3 13.89h2.762v-13.9h-2.752z" transform="translate(0 -110.254)" style="fill:url(#sazhnum9ka)"/>
        <path data-name="Path 29546" d="M178.082 65.4a1.554 1.554 0 0 1-1.631 1.506 1.579 1.579 0 1 1 .143-3.154 1.554 1.554 0 0 1 1.488 1.648" transform="translate(-120.571 -43.96)" style="fill:url(#sazhnum9ka)"/>
        <path data-name="Path 29547" d="M78.824 199.513a1.56 1.56 0 0 1 1.623-1.52A1.607 1.607 0 0 1 82 199.6a1.643 1.643 0 0 1-1.684 1.575 1.594 1.594 0 0 1-1.5-1.663" transform="translate(-54.338 -136.524)" style="fill:url(#sazhnum9ka)"/>
    </g>
</svg>
