<svg data-name="Stores icons" xmlns="http://www.w3.org/2000/svg" width="92" height="82" viewBox="0 0 92 82">
    <defs>
        <linearGradient id="f4igndnd8a" x1=".5" x2=".5" y2="1" gradientUnits="objectBoundingBox">
            <stop offset="0" stop-color="#fca817"/>
            <stop offset="1" stop-color="#fbda6b"/>
        </linearGradient>
        <clipPath id="cb6f5z63wb">
            <path data-name="Rectangle 190" style="fill:url(#f4igndnd8a)" d="M0 0h92v82H0z"/>
        </clipPath>
    </defs>
    <g data-name="Group 320" style="clip-path:url(#cb6f5z63wb)">
        <path data-name="Path 8348" d="M0 76.965a13.988 13.988 0 0 1 .56-1.507A5.638 5.638 0 0 1 5.683 72.1c1.4-.047 2.8-.009 4.34-.009v-1.028q0-14.473.017-28.947a1.359 1.359 0 0 0-.766-1.328 8.941 8.941 0 0 1-4.444-7.657c-.063-2.156-.036-4.315 0-6.472a2.786 2.786 0 0 1 .349-1.267c1.419-2.532 2.875-5.044 4.318-7.563a4.074 4.074 0 0 1 3.838-2.2c1.161.016 2.323 0 3.558 0 .017-.4.043-.716.044-1.035V3.806c0-2.627 1.167-3.806 3.759-3.807 1.737 0 3.474-.008 5.21 0 1 .006 1.579.5 1.6 1.309.021.852-.577 1.376-1.618 1.382-1.767.01-3.534.026-5.3-.009-.69-.014-.967.211-.965.923q.027 7.236 0 14.473c0 .654.237.93.9.906.778-.029 1.557-.006 2.335-.006h47.787c1.9 0 1.724.1 1.725-1.771v-13.3c0-1.207 0-1.209-1.2-1.209H32.813a4.675 4.675 0 0 1-.985-.033 1.263 1.263 0 0 1-1.1-1.324A1.272 1.272 0 0 1 31.846.034a3.821 3.821 0 0 1 .806-.027h38.809c2.353 0 3.6 1.242 3.6 3.6q.011 5.484 0 10.967v1.058c1.261 0 2.421.015 3.58 0a4.116 4.116 0 0 1 3.9 2.253c1.419 2.5 2.869 4.979 4.27 7.487a2.991 2.991 0 0 1 .36 1.354c.036 2.067.045 4.136.005 6.2a9.032 9.032 0 0 1-4.586 7.942A1.131 1.131 0 0 0 81.964 42c.032 2.247.014 4.495.013 6.742 0 1.45-.438 2.119-1.365 2.094-.895-.024-1.328-.7-1.329-2.066v-5.753c0-.291-.026-.583-.041-.917a9.52 9.52 0 0 1-9.318-4.351 9.4 9.4 0 0 1-15.943-.014 9.4 9.4 0 0 1-15.946 0 9.4 9.4 0 0 1-15.942.007 9.5 9.5 0 0 1-9.315 4.358v19.055h4.04c.749 0 1.5-.023 2.246.008a1.344 1.344 0 1 1-.029 2.682c-2.061.018-4.122.006-6.249.006v8.172h20.765v-8.171h-.944c-2.426 0-4.851.005-7.277 0-1.062 0-1.643-.5-1.632-1.358s.6-1.33 1.669-1.334c2.4-.008 4.791 0 7.187 0h1.062V46.266c0-1.979.8-2.787 2.769-2.789q9.612-.007 19.225 0c1.971 0 2.772.811 2.773 2.785v14.817h20.9c0-1.713-.007-3.411.005-5.11 0-.355-.053-.824.141-1.039a2.475 2.475 0 0 1 1.308-.852 1.107 1.107 0 0 1 1.209 1.077 6.916 6.916 0 0 1 .031.987v15.945c1.016 0 1.965.057 2.9-.01 3.532-.254 6.09 1.193 7.118 4.888v3.416L90.383 82H1.617L0 80.381v-3.416m89.246 2.3c.43-2.868-1.049-4.529-3.985-4.522q-39.394.1-78.789 0c-2.576-.006-4.279 1.759-3.662 4.52zm-80.74-54.3h75c-1.229-2.119-2.378-4.134-3.574-6.121a1.153 1.153 0 0 0-.817-.473c-1.331-.049-2.665-.022-3.973-.022-.528 2.561-1.464 3.33-3.964 3.33H20.796a6.965 6.965 0 0 1-1.252-.076 3 3 0 0 1-2.483-2.3c-.088-.307-.138-.625-.212-.971-1.271 0-2.5-.055-3.719.031a1.69 1.69 0 0 0-1.174.652c-1.17 1.907-2.255 3.866-3.451 5.951m27.857 47.07h8.23V46.221h-8.23zm19.272-25.811h-8.22V72.04h8.22zm2.794 25.805h20.8v-8.108H58.385v7.515c0 .176.024.352.042.594M39.382 27.766c0 1.9-.078 3.7.017 5.486a6.559 6.559 0 0 0 6.017 6.186 6.384 6.384 0 0 0 6.945-4.953 51.15 51.15 0 0 0 .37-6.719zm29.061.021h-13.1c0 1.832-.036 3.6.008 5.362a6.565 6.565 0 0 0 6.192 6.3 6.439 6.439 0 0 0 6.856-5.325 51.646 51.646 0 0 0 .049-6.342M23.5 27.763c0 1.98-.124 3.926.028 5.851a6.433 6.433 0 0 0 5.79 5.807 6.507 6.507 0 0 0 7.018-4.534c.71-2.332.206-4.733.337-7.124zm-2.872.015H7.517c0 1.818-.043 3.58.009 5.339a6.531 6.531 0 0 0 6.142 6.334 6.441 6.441 0 0 0 6.9-5.364 49.047 49.047 0 0 0 .05-6.309m50.671-.028c0 1.873-.062 3.666.013 5.453a6.589 6.589 0 0 0 13.166-.089c.053-1.615.019-3.233.016-4.85a2.876 2.876 0 0 0-.1-.514z" transform="translate(0 .001)" style="fill:url(#f4igndnd8a)"/>
        <path data-name="Path 8349" d="M94.443 256.064c-1.616 0-3.231.008-4.847 0a2.281 2.281 0 0 1-2.541-2.474q-.026-4.94 0-9.88a2.224 2.224 0 0 1 2.393-2.429q5.026-.035 10.053 0a2.144 2.144 0 0 1 2.341 2.28q.064 5.119 0 10.239a2.178 2.178 0 0 1-2.371 2.26c-1.675.02-3.351 0-5.026.005m-4.633-2.746h9.308v-9.305h-9.31z" transform="translate(-71.402 -197.793)" style="fill:url(#f4igndnd8a)"/>
        <path data-name="Path 8350" d="M349.8 256.064c-1.616 0-3.231.008-4.847 0a2.233 2.233 0 0 1-2.523-2.39q-.052-5.029 0-10.059a2.165 2.165 0 0 1 2.383-2.335q5.026-.032 10.053 0a2.2 2.2 0 0 1 2.354 2.375q.035 4.985 0 9.97a2.261 2.261 0 0 1-2.488 2.435c-1.646.013-3.291 0-4.937 0m-4.619-2.75h9.3v-9.3h-9.3z" transform="translate(-280.876 -197.792)" style="fill:url(#f4igndnd8a)"/>
        <path data-name="Path 8351" d="M266.286 30.014a6.673 6.673 0 1 1-6.654-6.715 6.692 6.692 0 0 1 6.654 6.715m-2.7.06a3.977 3.977 0 1 0-4.048 3.932 3.994 3.994 0 0 0 4.048-3.932" transform="translate(-207.49 -19.101)" style="fill:url(#f4igndnd8a)"/>
        <path data-name="Path 8352" d="M197.069 28.456c0-1.163-.006-2.292 0-3.42.008-1.065.49-1.671 1.318-1.681s1.368.625 1.371 1.653q.016 5.028 0 10.055c0 1.038-.535 1.673-1.35 1.678s-1.331-.619-1.339-1.664c-.009-1.251 0-2.5 0-3.811h-4.7v3.324a5.666 5.666 0 0 1-.045.984 1.256 1.256 0 0 1-1.373 1.148 1.222 1.222 0 0 1-1.254-1.268c-.034-1.2-.02-2.394-.021-3.591 0-2.274-.007-4.549 0-6.823 0-1.066.495-1.675 1.316-1.685s1.355.618 1.371 1.653c.018 1.131 0 2.263 0 3.448z" transform="translate(-155.589 -19.147)" style="fill:url(#f4igndnd8a)"/>
        <path data-name="Path 8353" d="M133 36.853a6.489 6.489 0 0 1-4.35-1.791 1.367 1.367 0 0 1-.244-2.052c.553-.607 1.306-.589 2.052.068a3.271 3.271 0 0 0 3.282.926 2.007 2.007 0 0 0 1.15-1.161c.081-.277-.49-.917-.9-1.131-1-.519-2.084-.889-3.137-1.311a3.229 3.229 0 0 1-2.177-2.917 3.438 3.438 0 0 1 1.645-3.279 5.707 5.707 0 0 1 6.582.735 1.245 1.245 0 0 1 .117 1.781 1.32 1.32 0 0 1-1.773.3 9.384 9.384 0 0 0-1.964-.8 2.39 2.39 0 0 0-1.452.245.752.752 0 0 0 .069 1.434c.953.426 1.938.781 2.9 1.2 2.184.945 3.168 2.53 2.785 4.446A4.483 4.483 0 0 1 133 36.853" transform="translate(-105.037 -19.25)" style="fill:url(#f4igndnd8a)"/>
        <path data-name="Path 8354" d="M337.867 31.952c0 1.13.012 2.112 0 3.095-.015.965-.553 1.577-1.345 1.567a1.411 1.411 0 0 1-1.34-1.6q-.021-5.114 0-10.229c0-.963.479-1.531 1.369-1.559a23.4 23.4 0 0 1 3.579.072 4.3 4.3 0 0 1 3.8 4.467 4.413 4.413 0 0 1-4.159 4.176c-.591.04-1.188.006-1.9.006m.059-2.684c1.2-.054 2.417.31 3.12-.968a1.434 1.434 0 0 0-.214-1.741c-.815-.927-1.873-.6-2.906-.643z" transform="translate(-274.943 -19.018)" style="fill:url(#f4igndnd8a)"/>
    </g>
</svg>
