<svg data-name="Group 2925" xmlns="http://www.w3.org/2000/svg" width="24" height="24" viewBox="0 0 24 24">
    <path data-name="Rectangle 188" style="fill:none" d="M0 0h24v24H0z"/>
    <path data-name="Path 8342" d="M21.1 14.984a5.253 5.253 0 0 1 2.6-4.439 5.668 5.668 0 0 0-4.4-2.305c-1.874-.183-3.657 1.07-4.609 1.07s-2.417-1.04-3.974-1.017a5.933 5.933 0 0 0-4.981 2.92c-2.124 3.564-.543 8.848 1.526 11.744 1.013 1.413 2.216 3 3.8 2.949 1.526-.059 2.1-.957 3.943-.957s2.362.957 3.974.928c1.642-.03 2.68-1.442 3.681-2.861a12.542 12.542 0 0 0 1.671-3.316 5.176 5.176 0 0 1-3.231-4.716z" transform="translate(-1.729 -1.908)" style="fill:#181818"/>
    <path data-name="Path 8343" d="M19.282 6.091a5.764 5.764 0 0 0 1.365-4.183 5.886 5.886 0 0 0-3.87 1.985 5.461 5.461 0 0 0-1.392 4.051 4.879 4.879 0 0 0 3.897-1.853z" transform="translate(-2.909 -1.908)" style="fill:#181818"/>
</svg>
