<svg xmlns="http://www.w3.org/2000/svg" width="24" height="24" viewBox="0 0 24 24">
    <g data-name="Group 2924">
        <path data-name="Rectangle 189" style="fill:none" d="M0 0h24v24H0z"/>
        <path data-name="Path 8344" d="M20.213 9.83 8.612 3.443a3.063 3.063 0 0 0-2.969.006l10.906 10.034z" style="fill:#fff" transform="translate(-3.137 -3.062)"/>
        <path data-name="Path 8345" d="M4.555 4.479a2.8 2.8 0 0 0-.418 1.459v18.119a2.78 2.78 0 0 0 .393 1.422L15.5 14.544z" style="fill:#fff" transform="translate(-3.137 -3.062)"/>
        <path data-name="Path 8346" d="m25.07 12.5-3.5-1.925-3.928 3.917 4.814 4.426 2.613-1.434a2.82 2.82 0 0 0 0-4.983z" style="fill:#fff" transform="translate(-3.137 -3.062)"/>
        <path data-name="Path 8347" d="M5.594 26.521a3.118 3.118 0 0 0 1.525.417 3.078 3.078 0 0 0 1.488-.386l12.473-6.865-4.494-4.131z" style="fill:#fff" transform="translate(-3.137 -3.062)"/>
    </g>
</svg>
